<svg viewBox="0 0 820 200" xmlns="http://www.w3.org/2000/svg">
  <rect x="0" y="0" width="820" height="200" fill="#F2EEE3" />

  <!-- car icon, traced from source artwork -->
  <g transform="translate(24.00,49.19) scale(0.151210)">
    <g transform="translate(0,672) scale(0.1,-0.1)" fill="#4E62A0" stroke="none">
      <path d="M5050 4660 c-387 -13 -515 -25 -618 -59 -48 -16 -107 -32 -132 -36
-25 -4 -72 -22 -105 -40 -33 -18 -76 -35 -95 -39 -19 -3 -53 -19 -75 -35 -22
-15 -62 -36 -90 -45 -27 -9 -68 -30 -89 -46 -22 -17 -47 -30 -57 -30 -9 0 -41
-16 -70 -36 -30 -20 -67 -41 -84 -46 -16 -6 -46 -23 -66 -38 -20 -16 -53 -36
-75 -45 -21 -9 -49 -26 -62 -38 -12 -11 -42 -33 -66 -47 -85 -50 -138 -86
-182 -122 -25 -21 -49 -38 -54 -38 -4 0 -27 -16 -50 -35 -23 -19 -47 -35 -54
-35 -7 0 -46 -17 -87 -37 l-74 -36 -211 -13 c-115 -7 -230 -15 -255 -18 -24
-3 -107 -15 -184 -26 -77 -11 -258 -26 -402 -35 -408 -23 -655 -64 -738 -119
-27 -19 -60 -37 -71 -40 -30 -9 -190 -169 -215 -214 -11 -20 -31 -52 -44 -71
-14 -19 -30 -52 -36 -75 -6 -23 -22 -60 -36 -84 -19 -32 -30 -75 -44 -180 -11
-75 -28 -177 -38 -227 -26 -119 -45 -338 -37 -408 6 -42 16 -67 39 -97 18 -22
42 -53 55 -70 13 -16 28 -30 34 -30 6 0 25 -11 42 -24 41 -31 54 -34 192 -52
179 -22 225 -31 246 -51 11 -10 43 -65 70 -123 59 -124 52 -114 105 -182 53
-70 176 -184 228 -210 22 -11 52 -31 67 -43 15 -13 47 -26 70 -30 24 -4 77
-16 118 -28 92 -26 223 -28 295 -4 28 9 75 21 105 27 30 6 73 22 95 37 22 15
60 37 85 50 81 41 215 182 251 263 11 25 29 54 40 66 11 12 26 53 35 94 17 84
26 104 51 116 10 4 529 11 1153 16 624 4 1405 12 1735 16 330 5 607 5 616 0
19 -9 39 -59 39 -97 0 -14 18 -62 40 -106 22 -44 40 -85 40 -91 0 -5 8 -19 18
-30 9 -10 33 -39 52 -64 42 -54 70 -81 141 -138 115 -91 159 -113 284 -145
147 -37 246 -39 355 -9 41 11 93 23 115 27 22 4 54 17 70 29 17 13 53 35 82
49 74 38 219 187 250 256 14 30 35 67 48 83 14 16 26 48 30 76 4 26 10 61 15
77 5 17 11 52 15 79 5 37 15 58 39 82 38 38 84 49 287 70 148 15 185 23 319
69 62 21 86 36 140 88 36 35 83 94 105 132 l40 70 3 345 c2 190 -1 411 -6 491
-9 128 -14 154 -40 215 -16 38 -33 84 -37 102 -4 19 -19 48 -35 65 -15 18 -34
46 -43 63 -22 43 -171 180 -228 209 -25 13 -51 31 -59 40 -8 9 -35 27 -61 41
-26 13 -50 28 -54 34 -4 6 -33 24 -66 40 -41 21 -60 37 -65 54 -9 36 2 46 50
46 29 0 56 9 88 29 80 51 87 91 30 152 l-38 41 -149 18 c-83 11 -195 26 -250
35 -55 8 -188 20 -295 26 -201 10 -424 28 -660 54 -170 18 -530 33 -955 40
-181 3 -397 7 -480 9 -82 2 -265 0 -405 -4z m798 -240 c128 -5 418 -17 645
-25 226 -9 446 -20 487 -24 255 -30 504 -51 700 -61 261 -13 266 -16 225 -79
-23 -34 -27 -48 -22 -83 5 -36 14 -51 59 -91 29 -26 69 -56 89 -67 19 -10 41
-26 49 -35 8 -9 32 -26 54 -37 23 -11 54 -32 70 -45 16 -13 46 -33 66 -43 43
-22 196 -170 223 -215 9 -16 26 -43 36 -60 28 -43 47 -232 61 -585 11 -287 10
-297 -10 -352 -11 -32 -20 -67 -20 -79 0 -26 -80 -104 -126 -124 -16 -8 -68
-21 -115 -29 -46 -8 -127 -24 -179 -35 -130 -27 -256 -36 -275 -21 -8 6 -19
28 -26 48 -6 20 -21 51 -33 67 -12 17 -28 44 -35 62 -13 32 -177 204 -244 256
-20 16 -60 38 -88 48 -28 11 -74 32 -103 47 -50 27 -54 27 -242 27 l-190 0
-65 -32 c-35 -18 -83 -39 -107 -48 -52 -18 -104 -58 -197 -151 -95 -97 -123
-135 -146 -195 -11 -28 -26 -61 -34 -73 -8 -12 -22 -46 -30 -74 -13 -43 -20
-52 -49 -62 -18 -6 -40 -8 -49 -5 -18 7 -2377 -12 -2987 -24 -462 -10 -470 -9
-494 51 -8 18 -17 53 -21 78 -4 25 -19 63 -33 85 -15 22 -36 56 -47 77 -56
101 -239 271 -323 299 -20 7 -64 26 -97 43 l-60 31 -190 0 -190 0 -75 -37
c-41 -20 -86 -39 -100 -43 -36 -11 -158 -105 -210 -162 -82 -91 -112 -133
-134 -191 -13 -31 -33 -73 -44 -92 -12 -19 -22 -49 -22 -66 0 -57 -12 -95 -35
-110 -20 -13 -28 -13 -73 5 -45 18 -132 38 -245 56 -66 11 -95 94 -67 195 5
19 16 116 25 215 11 117 23 199 36 235 11 30 29 89 40 130 11 42 31 86 44 100
12 14 32 43 43 66 24 46 145 149 201 169 20 7 52 22 71 33 38 22 115 31 465
53 99 6 223 17 275 25 173 27 237 33 417 44 362 21 451 30 516 54 34 13 81 27
104 31 24 4 57 17 75 30 18 13 53 33 77 44 24 12 59 34 77 51 19 16 39 30 44
30 6 0 27 15 47 34 21 18 56 43 79 54 22 11 47 28 54 37 8 10 37 27 65 39 27
13 57 31 65 40 8 10 37 28 66 41 28 12 55 28 59 35 4 6 37 25 74 42 36 16 75
37 86 47 11 10 43 26 72 35 28 10 57 24 64 32 17 21 57 40 99 49 19 4 56 20
82 37 26 16 75 36 108 44 33 8 79 23 100 34 57 29 106 36 370 55 129 9 249 17
265 19 74 7 592 5 803 -4z m-3658 -1841 c97 -47 186 -121 223 -184 9 -16 26
-44 37 -61 14 -21 25 -67 34 -135 11 -89 11 -120 -1 -209 -12 -86 -20 -111
-41 -139 -15 -18 -37 -48 -49 -66 -20 -31 -52 -60 -150 -139 -27 -21 -59 -37
-85 -41 -24 -3 -78 -13 -120 -22 -70 -14 -83 -14 -135 0 -32 8 -79 18 -104 21
-88 13 -215 123 -296 260 l-48 81 0 161 0 162 31 43 c17 24 36 58 43 75 20 50
119 139 206 185 100 53 125 58 255 56 103 -2 108 -3 200 -48z m5122 2 c98 -51
182 -121 208 -170 10 -20 27 -44 38 -55 21 -18 28 -46 51 -191 10 -59 8 -88
-8 -184 -17 -97 -24 -118 -49 -145 -16 -17 -39 -48 -52 -69 -12 -21 -41 -50
-64 -65 -22 -14 -57 -41 -77 -58 -24 -21 -52 -34 -80 -38 -24 -4 -77 -14 -117
-23 -68 -15 -79 -15 -140 0 -37 9 -86 19 -108 22 -24 4 -65 22 -95 43 -68 47
-165 144 -175 174 -4 13 -17 37 -29 53 -29 39 -35 58 -44 155 -11 106 2 236
27 270 11 14 31 48 45 75 36 70 128 155 217 200 97 49 123 54 257 51 112 -2
114 -3 195 -45z M7390 3829 c-118 -4 -363 -15 -545 -23 -452 -21 -885 -34
-1365 -41 -484 -7 -935 -20 -1390 -40 -184 -8 -380 -17 -436 -19 -149 -7 -204
-37 -204 -114 0 -47 34 -77 103 -92 31 -6 60 -9 64 -7 5 3 292 10 638 16 760
14 1230 27 1630 46 401 19 860 33 1375 40 466 7 474 8 510 67 25 42 25 72 0
113 -37 60 -79 66 -380 54z"/>
    </g>
  </g>

  <!-- divider -->
  <line x1="200" y1="32" x2="200" y2="168" stroke="#4E62A0" stroke-width="3" stroke-linecap="round" />

  <!-- wordmark -->
  <text x="228" y="128" font-family="'Poppins','Segoe UI',Helvetica,Arial,sans-serif" font-size="58" font-weight="500" letter-spacing="0.5" fill="#4E62A0">Dream Auto Tirane</text>
</svg>
